<svg xmlns="http://www.w3.org/2000/svg" viewBox="0 0 512 640" x="0px" y="0px"><g><polygon points="264.871 223.718 194.472 291.854 208.14 302.105 271.228 239.611 264.871 223.718"/><path d="M266.948,279.92l1.933-15.463-8.6,8.515,3.937,3.936C265.184,277.87,266.082,278.883,266.948,279.92Z"/><polygon points="128 269.138 128 250.422 117.133 266.723 128 269.138"/><path d="M192,144a24,24,0,0,0,48,0V119.894H211.314L192,139.207Z"/><path d="M185.588,122.991l16.755-16.754A8,8,0,0,1,208,103.894h35.719l16.072-24.108a15.3,15.3,0,0,0-25.457-16.972l-3.678,5.517A8,8,0,0,1,224,71.894H201.059a26.118,26.118,0,0,0-22.4,39.555Z"/><path d="M76.406,299.291l76.909,12.818a8,8,0,0,1,5.341,3.453l12.611,18.916,15.6-5.2,10.28-15.419L172.58,295.435,102.265,279.81a8,8,0,0,1-4.921-12.248l12.362-18.543L89.021,228.334,62.433,265.558a21.518,21.518,0,0,0,13.973,33.733Z"/><path d="M129.344,219.562A8,8,0,0,1,144,224v30.749A45.934,45.934,0,0,1,187.389,224h4.871a45.7,45.7,0,0,1,32.527,13.473l1.409,1.41,32.254-31.217-1.878-4.695a8,8,0,0,1,4.457-10.4l22.185-8.874,15.777-15.27-.868-1.954-42.961-14.321a40,40,0,0,1-78.324,0L133,166.767,98.449,215.135l20.308,20.308Z"/><path d="M192.26,240h-4.871a29.963,29.963,0,0,0-28.461,20.513l-1.917,5.751a45.529,45.529,0,0,1-3.823,8.471l24.547,5.455a20.076,20.076,0,0,1,3.775,1.943L214.7,250.012l-1.225-1.225A29.8,29.8,0,0,0,192.26,240Z"/><path d="M304.081,233.131c-.054-.374-.081-23.833-.081-23.833l-4.906-14.719-8.524,3.409-.056.023L274.4,204.457l.92,2.3.023.059,12.086,30.214a7.994,7.994,0,0,1,.51,3.963l-7.111,56.886a11.276,11.276,0,0,0,1.807,7.651l3.1,4.655a8.041,8.041,0,0,1,1.432,2.035,11.266,11.266,0,0,0,19.636-4.423,105.9,105.9,0,0,0,2.107-40.845Z"/><path d="M237.878,364.464a29.505,29.505,0,0,0-22.511,17.855l-.7,1.681H272V338.578A45.808,45.808,0,0,1,237.878,364.464Z"/><path d="M401.392,71.249,359.032,116.2l-7.443,22.327a7.99,7.99,0,0,1-2.026,3.219l-31.409,30.4,6.473,14.566,36.743-36.4a8.017,8.017,0,0,1,2.821-1.807l22.3-8.362,42.087-43.8Z"/><polygon points="99.171 350.906 143.879 395.498 152.086 386.987 107.178 342.459 99.171 350.906"/><path d="M161.344,348.438l-9.936-14.9L136,348.451l12.649,12.591,12.71-12.591Z"/><path d="M198.77,422.154A67.862,67.862,0,0,1,168.054,456H272V400H208Z"/><path d="M184,416l16.6-39.834a45.418,45.418,0,0,1,34.651-27.484,29.892,29.892,0,0,0,24.766-25.349l1.38-9.655a30.145,30.145,0,0,0-8.486-25.456l-3.99-3.99-37.666,37.312-12.6,18.894a8,8,0,0,1-4.126,3.151l-8.339,2.78-26.185,25.939,8.948,8.872a8,8,0,0,1,.126,11.234L149.75,412.46a8,8,0,0,1-5.681,2.447h-.078a8,8,0,0,1-5.65-2.336l-55.99-55.843a8,8,0,0,1-.157-11.168l19-20.046a8,8,0,0,1,11.439-.178l11.973,11.872,12.043-11.656-57.487-9.581a51.636,51.636,0,0,0-27.117,40.067l-.909,8.184a51.745,51.745,0,0,0,14.912,42.512L92.083,432.77A51.663,51.663,0,0,0,128.853,448H136A51.864,51.864,0,0,0,184,416Z"/></g><text x="0" y="527" fill="#000000" font-size="5px" font-weight="bold" font-family="'Helvetica Neue', Helvetica, Arial-Unicode, Arial, Sans-serif">Created by supalerk laipawat</text><text x="0" y="532" fill="#000000" font-size="5px" font-weight="bold" font-family="'Helvetica Neue', Helvetica, Arial-Unicode, Arial, Sans-serif">from the Noun Project</text></svg>