<svg xmlns:dc="http://purl.org/dc/elements/1.1/" xmlns:cc="http://creativecommons.org/ns#" xmlns:rdf="http://www.w3.org/1999/02/22-rdf-syntax-ns#" xmlns:svg="http://www.w3.org/2000/svg" xmlns="http://www.w3.org/2000/svg" xmlns:sodipodi="http://sodipodi.sourceforge.net/DTD/sodipodi-0.dtd" xmlns:inkscape="http://www.inkscape.org/namespaces/inkscape" version="1.1" x="0px" y="0px" viewBox="0 0 100 125"><g transform="translate(0,-952.36218)"><path d="m 9,965.36229 c -1.1046,0 -2,0.89543 -2,2 0,1.10457 0.8954,2 2,2 l 12.375,0 10.5312,49.75001 c 0.2555,1.2291 1.0765,2.263 2.0938,2.25 l 50,0 c 1.0566,0.015 2.0285,-0.9432 2.0285,-2 0,-1.0567 -0.9719,-2.0149 -2.0285,-2 l -48.375,0 -10.6562,-50.43751 C 24.7706,966.04081 23.9059,965.35456 23,965.36229 z m 22,12.00001 2.5938,13 16.4062,0 0,-13 z m 23,0 0,13 16,0 0,-13 z m 20,0 0,13 15.9688,0 3.0312,-13 z m -39.5938,17 2.5938,13 13,0 0,-13 z m 19.5938,0 0,13 16,0 0,-13 z m 20,0 0,13 12,0 3.0312,-13 z m -29,30.9999 c -3.8659,0 -7,3.134 -7,6.9999 0,3.866 3.1341,7 7,7 3.866,0 7,-3.134 7,-7 0,-3.8659 -3.134,-6.9999 -7,-6.9999 z m 28,0 c -3.8659,0 -7,3.134 -7,6.9999 0,3.866 3.1341,7 7,7 3.866,0 7,-3.134 7,-7 0,-3.8659 -3.134,-6.9999 -7,-6.9999 z" style="text-indent:0;text-transform:none;direction:ltr;block-progression:tb;baseline-shift:baseline;color:#000000;enable-background:accumulate;" fill="#000000" fill-opacity="1" stroke="none" marker="none" visibility="visible" display="inline" overflow="visible"/></g><text x="0" y="115" fill="#000000" font-size="5px" font-weight="bold" font-family="'Helvetica Neue', Helvetica, Arial-Unicode, Arial, Sans-serif">Created by Alfa Design</text><text x="0" y="120" fill="#000000" font-size="5px" font-weight="bold" font-family="'Helvetica Neue', Helvetica, Arial-Unicode, Arial, Sans-serif">from the Noun Project</text></svg>