<?xml version="1.0" standalone="no"?>
<!DOCTYPE svg PUBLIC "-//W3C//DTD SVG 20010904//EN"
 "http://www.w3.org/TR/2001/REC-SVG-20010904/DTD/svg10.dtd">
<svg version="1.0" xmlns="http://www.w3.org/2000/svg"
 width="512.000000pt" height="512.000000pt" viewBox="0 0 512.000000 512.000000"
 preserveAspectRatio="xMidYMid meet">

<g transform="translate(0.000000,512.000000) scale(0.100000,-0.100000)"
fill="#000000" stroke="none">
<path d="M2355 5110 c-321 -27 -628 -112 -920 -255 -766 -374 -1287 -1098
-1411 -1960 -24 -165 -24 -505 0 -670 94 -657 429 -1254 928 -1656 580 -466
1317 -656 2053 -530 515 89 988 336 1364 711 507 508 774 1186 748 1900 -28
742 -357 1408 -932 1886 -275 228 -660 420 -1019 509 -238 58 -575 85 -811 65z
m1309 -1698 c106 -48 187 -142 220 -252 14 -46 16 -130 16 -624 0 -615 -1
-630 -53 -719 -33 -56 -110 -127 -168 -155 -26 -13 -73 -27 -105 -32 -79 -13
-1870 -13 -1948 0 -127 21 -250 119 -298 237 l-23 58 -3 584 c-3 648 -2 654
62 755 33 51 96 110 146 136 74 39 74 39 1105 37 l1000 -2 49 -23z"/>
<path d="M2340 2584 c0 -267 4 -484 8 -482 5 2 171 111 370 242 l362 239 -258
170 c-141 93 -308 203 -369 243 l-113 73 0 -485z"/>
</g>
</svg>
